<svg width="80" height="80" viewBox="0 0 80 80" fill="none" xmlns="http://www.w3.org/2000/svg">
  <!-- Sacola com destaque para login -->
  <circle cx="40" cy="40" r="38" fill="url(#grad1)" opacity="0.2"/>
  <circle cx="40" cy="40" r="36" fill="url(#grad2)"/>

  <defs>
    <linearGradient id="grad1" x1="0%" y1="0%" x2="100%" y2="100%">
      <stop offset="0%" style="stop-color:#f97316;stop-opacity:1" />
      <stop offset="100%" style="stop-color:#ea580c;stop-opacity:1" />
    </linearGradient>
    <linearGradient id="grad2" x1="0%" y1="0%" x2="100%" y2="100%">
      <stop offset="0%" style="stop-color:#f97316;stop-opacity:1" />
      <stop offset="100%" style="stop-color:#ea580c;stop-opacity:1" />
    </linearGradient>
  </defs>

  <!-- Sacola branca interna -->
  <path d="M20 30 L20 60 Q20 65 25 65 L55 65 Q60 65 60 60 L60 30 Z" fill="white"/>

  <!-- Alças -->
  <path d="M20 30 Q20 15 28 15 Q32 15 32 20" fill="none" stroke="white" stroke-width="2.5" stroke-linecap="round"/>
  <path d="M60 30 Q60 15 52 15 Q48 15 48 20" fill="none" stroke="white" stroke-width="2.5" stroke-linecap="round"/>

  <!-- Seta crescimento -->
  <path d="M28 52 L52 28" stroke="#f97316" stroke-width="5" stroke-linecap="round"/>
  <path d="M43 31 L52 28 L49 37" fill="#f97316"/>
</svg>
